<?xml version="1.0" encoding="utf-8"?>
<!-- Generator: Adobe Illustrator 15.0.0, SVG Export Plug-In . SVG Version: 6.00 Build 0)  -->
<!DOCTYPE svg PUBLIC "-//W3C//DTD SVG 1.1//EN" "http://www.w3.org/Graphics/SVG/1.1/DTD/svg11.dtd">
<svg version="1.1" id="Layer_1" xmlns="http://www.w3.org/2000/svg" xmlns:xlink="http://www.w3.org/1999/xlink" x="0px" y="0px"
	 width="80px" height="80px" viewBox="0 0 80 80" enable-background="new 0 0 80 80" xml:space="preserve">
<g id="Layer_4">
	<g>
		<path fill="#91C13B" d="M66.978,27.916c0-0.414-0.222-0.794-0.578-1c-0.357-0.206-0.797-0.205-1.153,0.001l-22.291,12.87
			c-1.187,0.684-1.917,1.949-1.917,3.318v25.742c0,0.41,0.219,0.791,0.576,0.998c0.357,0.205,0.796,0.206,1.154,0l21.438-12.377
			c1.715-0.99,2.77-2.818,2.77-4.797L66.978,27.916L66.978,27.916z"/>
		<path fill="#91C13B" d="M14.752,26.916c-0.356-0.206-0.796-0.207-1.153,0c-0.355,0.206-0.576,0.586-0.576,0.998c0,0,0,0,0,0.001
			v24.754c0,1.979,1.056,3.807,2.77,4.797l21.438,12.376l0.002,0.003c0.357,0.205,0.797,0.204,1.154-0.003
			c0.356-0.204,0.575-0.587,0.575-0.997v-25.74c0-1.371-0.729-2.634-1.917-3.319L14.752,26.916z"/>
		<path fill="#91C13B" d="M64.207,25.119c0.356-0.206,0.577-0.587,0.577-0.999s-0.219-0.793-0.575-0.999c0,0,0,0-0.002,0
			L42.769,10.743c-1.715-0.989-3.824-0.989-5.539,0L15.792,23.12c-0.001,0-0.002,0-0.002,0c-0.355,0.207-0.576,0.588-0.576,1
			c0,0.413,0.221,0.792,0.577,0.999L38.083,37.99c1.186,0.685,2.646,0.685,3.833,0L64.207,25.119z"/>
	</g>
</g>
</svg>
