<?xml version="1.0" encoding="utf-8"?>
<!-- Generator: Adobe Illustrator 15.0.0, SVG Export Plug-In . SVG Version: 6.00 Build 0)  -->
<!DOCTYPE svg PUBLIC "-//W3C//DTD SVG 1.1//EN" "http://www.w3.org/Graphics/SVG/1.1/DTD/svg11.dtd">
<svg version="1.1" id="Layer_1" xmlns="http://www.w3.org/2000/svg" xmlns:xlink="http://www.w3.org/1999/xlink" x="0px" y="0px"
	 width="80px" height="80px" viewBox="0 0 80 80" enable-background="new 0 0 80 80" xml:space="preserve">
<path fill="#91C13B" d="M63.889,10H16.11c-0.932,0-1.693,0.764-1.693,1.695v56.612c0,0.933,0.764,1.693,1.693,1.693h47.779
	c0.932,0,1.695-0.764,1.695-1.693V11.695C65.584,10.763,64.82,10,63.889,10z M27.481,62.764h-7.127v-7.125h7.127V62.764z
	 M27.481,49.963h-7.127v-7.126h7.127V49.963z M27.481,37.163h-7.127v-7.126h7.127V37.163z M27.481,24.361h-7.127v-7.125h7.127
	V24.361z M59.646,62.764H52.52v-7.125h7.127V62.764z M59.646,49.963H52.52v-7.126h7.127V49.963z M59.646,37.163H52.52v-7.126h7.127
	V37.163z M59.646,24.361H52.52v-7.125h7.127V24.361z"/>
</svg>
