<?xml version="1.0" encoding="utf-8"?>
<!-- Generator: Adobe Illustrator 15.0.0, SVG Export Plug-In . SVG Version: 6.00 Build 0)  -->
<!DOCTYPE svg PUBLIC "-//W3C//DTD SVG 1.1//EN" "http://www.w3.org/Graphics/SVG/1.1/DTD/svg11.dtd">
<svg version="1.1" id="Layer_1" xmlns="http://www.w3.org/2000/svg" xmlns:xlink="http://www.w3.org/1999/xlink" x="0px" y="0px"
	 width="80px" height="80px" viewBox="0 0 80 80" enable-background="new 0 0 80 80" xml:space="preserve">
<g id="Layer_3">
	<g>
		<path fill="#91C13B" d="M61.398,35.617H41.727V15.958c0-2.344-1.268-5.958-5.106-5.958s-5.108,3.631-5.106,5.982v22.305v1.193v10
			l-8.539-5.164c-2.007-1.998-5.256-1.986-7.254,0.031c-1.996,2.016-1.986,5.268,0.02,7.277l16.914,16.879
			c0.07,0.063,0.162,0.109,0.24,0.191c0.793,0.801,1.889,1.293,3.103,1.305H61.4c2.404-0.006,4.369-2.029,4.369-4.434l-0.062-25.632
			C65.713,37.522,63.789,35.606,61.398,35.617z"/>
	</g>
</g>
</svg>
