<?xml version="1.0" encoding="utf-8"?>
<!-- Generator: Adobe Illustrator 15.0.0, SVG Export Plug-In . SVG Version: 6.00 Build 0)  -->
<!DOCTYPE svg PUBLIC "-//W3C//DTD SVG 1.1//EN" "http://www.w3.org/Graphics/SVG/1.1/DTD/svg11.dtd">
<svg version="1.1" id="Layer_1" xmlns="http://www.w3.org/2000/svg" xmlns:xlink="http://www.w3.org/1999/xlink" x="0px" y="0px"
	 width="80px" height="80px" viewBox="0 0 80 80" enable-background="new 0 0 80 80" xml:space="preserve">
<g id="Layer_1_1_">
	<path fill="#91C13B" d="M56.305,65.164c0.115-0.072,0.227-0.145,0.336-0.217c0.059-0.039,0.119-0.077,0.18-0.118
		c0.213-0.146,0.418-0.292,0.627-0.446C65.039,58.934,70,50.039,70,40.001C70,23.459,56.543,10,40,10c-16.542,0-30,13.459-30,30.001
		S23.458,70,40,70c4.393,0,8.563-0.957,12.327-2.661c0.08-0.036,0.162-0.071,0.236-0.106C53.863,66.629,55.111,65.938,56.305,65.164
		z M41.604,52.688c-0.092-1.193,0.074-8.646,0.229-10.778c1.352-0.062,4.939-0.111,8.609-0.111c2.604,0,4.256,0.027,4.996,0.058
		c0.121,1.896-1.127,9.354-2.006,10.756l-0.049,0.078L41.604,52.688L41.604,52.688L41.604,52.688z M51.734,56.805
		c-0.084,0.19-0.193,0.413-0.324,0.655c-1.693,3.138-4.52,6.103-7.031,7.376c-0.873,0.443-2.078,0.789-2.783,0.869
		c-0.1-1.741-0.039-7.257,0.1-8.898c0.754-0.074,2.461-0.139,4.813-0.139C48.873,56.668,50.754,56.73,51.734,56.805z M41.846,27.835
		H53.57l0.182,0.489c0.873,2.333,1.664,7.799,1.588,9.352c-0.879,0.086-3.117,0.158-6.383,0.158h-0.002
		c-3.506,0-6.15-0.084-7.195-0.182c-0.031-0.832-0.045-2.648-0.002-5.104L41.846,27.835z M41.887,18.943
		c0.055-2.014,0.102-3.791,0.189-4.447c0.406,0.049,1.186,0.395,2.215,0.896c1.832,0.887,3.729,2.521,5.205,4.482
		c0.842,1.118,1.828,2.79,2.324,3.777c-0.947,0.039-2.594,0.074-4.711,0.074c-2.23,0-4.439-0.008-5.248-0.099
		C41.785,22.654,41.859,19.919,41.887,18.943z M62.756,37.826c-1.707,0-2.875-0.082-3.363-0.158
		c-0.057-0.25-0.137-0.794-0.201-1.958c-0.064-1.147-0.215-2.647-0.367-3.165c-0.094-0.32-0.307-1.309-0.477-2.271
		c-0.146-0.836-0.432-2-0.682-2.547c0.805-0.084,2.32-0.164,3.689-0.164c0.756,0,1.111,0.026,1.266,0.045
		c0.783,0.83,2.588,5.504,3.012,8.688c0.057,0.418,0.143,1.063,0.152,1.395C65.357,37.753,64.355,37.826,62.756,37.826z
		 M65.846,41.684c0.021,0.951-0.348,3.604-1.135,6.205c-0.721,2.379-1.363,3.799-2.088,4.612c-0.059,0.065-0.078,0.083-0.082,0.083
		c-0.193,0.104-1.416,0.104-2.711,0.104h-2.166c0.033-0.228,0.109-0.531,0.199-0.748c0.527-1.241,1.184-5.307,1.395-7.972
		c0.037-0.456,0.139-1.729,0.266-2.214c0.539-0.07,1.936-0.148,3.807-0.148C64.588,41.605,65.412,41.645,65.846,41.684z
		 M58.422,23.704L58.422,23.704c-1.041,0-1.691-0.029-1.992-0.056c-0.207-0.284-0.646-0.984-1.188-2.018
		c-0.686-1.314-1.785-3.063-2.449-3.895c-0.063-0.075-0.119-0.149-0.176-0.223l0.277,0.148c1.52,0.811,2.27,1.347,4.223,3.031
		c0.977,0.844,2.154,2.123,2.865,2.984C59.563,23.693,59.035,23.704,58.422,23.704z M55.152,58.807
		c0.484-0.938,0.883-1.668,1.068-1.994c0.381-0.06,1.277-0.127,2.525-0.127c0.48,0,0.873,0.012,1.189,0.026
		c-1.283,1.509-4.729,4.652-6.4,5.509c-0.234,0.122-0.541,0.288-0.861,0.471C53.543,61.529,54.605,59.865,55.152,58.807z
		 M32.168,52.886c-3.04-0.002-5.164-0.063-5.844-0.114c-0.507-0.85-1.537-4.695-1.9-8.877c-0.044-0.512-0.126-1.451-0.129-1.959
		c0.716-0.039,2.334-0.076,5.024-0.076c0.604,0,1.236,0.002,1.883,0.006l6.456,0.043l0.046,4.976
		c0.037,3.905-0.047,5.759-0.094,5.995l-0.004,0.012L32.168,52.886z M37.55,61.411l-0.084,4.083l-0.234,0.009
		c-2.086,0-6.615-3.629-8.731-7.711c-0.199-0.383-0.36-0.663-0.493-0.869c0.715-0.026,1.896-0.026,3.273-0.026
		c2.49,0,4.99-0.058,5.691-0.133c0.231-0.022,0.416-0.039,0.564-0.048C37.577,57.393,37.599,59.092,37.55,61.411z M20.031,27.734
		c0.498,0,1.385,0,1.947,0.041c-0.59,1.686-1.481,6.824-1.555,8.754c-0.021,0.601-0.098,1.084-0.152,1.324
		c-0.475,0.088-1.916,0.112-2.9,0.127c-1.757,0.029-2.596,0.006-2.896-0.035c-0.084-0.688,0.024-2.676,0.373-3.771l0.817-2.552
		c0.649-2.023,1.339-3.329,1.735-3.727C17.531,27.768,18.046,27.734,20.031,27.734z M19.933,23.902
		c0.818-1.012,2.592-2.854,4.359-4.271c0.686-0.55,1.617-1.164,2.473-1.677c-0.808,1.093-1.822,2.709-2.375,3.797
		c-0.533,1.049-1.014,1.856-1.147,2.06c-0.257,0.063-0.968,0.138-1.993,0.138l0,0C20.724,23.947,20.279,23.93,19.933,23.902z
		 M17.359,41.816h0.172c0.602,0,2.068,0,2.656,0.078c0.063,0.321,0.149,0.928,0.196,1.707c0.134,2.221,1.127,7.657,1.663,9.09
		c0.02,0.05,0.035,0.098,0.051,0.143c-0.369,0.027-0.978,0.055-1.962,0.055h-0.442c-2.127,0-2.127,0-2.907-1.525l-0.083-0.161
		c-1.506-2.941-2.5-8.004-2.344-9.282C14.868,41.867,15.957,41.818,17.359,41.816z M21.423,56.895h0.672
		c1.483,0,1.483,0,2.305,1.617l0.17,0.334c0.494,0.967,1.465,2.499,2.162,3.418c0.025,0.033,0.052,0.068,0.078,0.104
		c-0.654-0.391-1.406-0.883-2.181-1.463c-1.114-0.836-3.17-2.848-4.219-4.002C20.786,56.895,21.181,56.895,21.423,56.895z
		 M37.666,37.71l-6.618,0.048c-1.461,0.01-2.644,0.016-3.598,0.016c-0.707,0-2.374,0-3.147-0.06c0.033-1.14,0.387-4.124,0.836-6.249
		c0.467-2.207,0.861-3.252,1.053-3.626c0.729-0.048,2.875-0.101,5.949-0.103h0.264c1.457,0,4.266,0,5.338,0.092
		c0.037,0.816,0.055,2.648,0.009,5.126L37.666,37.71z M29.992,23.803L29.992,23.803c-1.057,0-1.741-0.013-2.18-0.027
		c0.418-0.896,1.328-2.487,2.348-3.827c1.494-1.966,3.666-3.833,5.404-4.647c1.287-0.602,1.869-0.814,2.229-0.814
		c0.052,0,0.104,0.005,0.16,0.014v4.475c0,1.359,0,3.731-0.093,4.623C36.646,23.703,33.025,23.803,29.992,23.803z"/>
</g>
</svg>
